<svg width="1500" height="2000" viewBox="0 0 1500 2000" fill="none" xmlns="http://www.w3.org/2000/svg">
<g clip-path="url(#clip0_5_20156)">
<rect width="1500" height="2000" transform="translate(1500 2000) rotate(-180)" fill="#F5945C"/>
<path d="M457.558 1202.19V837H330.116V1047.62H229.19V1311.05H228.368V945.858H100.926V1156.48H0V1738.67C0 1773.89 28.5203 1802.43 63.721 1802.43C98.9217 1802.43 127.442 1773.89 127.442 1738.67V1642.3C127.442 1614.43 150.053 1591.81 177.905 1591.81C205.757 1591.81 228.368 1614.43 228.368 1642.3V1893.24C228.368 1928.46 256.888 1957 292.089 1957C327.29 1957 355.81 1928.46 355.81 1893.24V1639.63C356.324 1636.44 356.632 1633.15 356.632 1629.81V1533.39C356.632 1505.52 379.243 1482.9 407.095 1482.9C434.947 1482.9 457.558 1505.52 457.558 1533.39V1784.33C457.558 1819.55 486.078 1848.09 521.279 1848.09C556.48 1848.09 585 1819.55 585 1784.33V1202.19H457.558Z" fill="#FFDB68"/>
<path d="M914.558 1202.19V837H787.116V1047.62H686.19V1311.05H685.368V945.858H557.926V1156.48H457V1738.67C457 1773.89 485.52 1802.43 520.721 1802.43C555.922 1802.43 584.442 1773.89 584.442 1738.67V1642.3C584.442 1614.43 607.053 1591.81 634.905 1591.81C662.757 1591.81 685.368 1614.43 685.368 1642.3V1893.24C685.368 1928.46 713.888 1957 749.089 1957C784.29 1957 812.81 1928.46 812.81 1893.24V1639.63C813.324 1636.44 813.632 1633.15 813.632 1629.81V1593.39C813.632 1565.52 836.243 1542.9 864.095 1542.9C891.947 1542.9 914.558 1565.52 914.558 1593.39V1784.33C914.558 1819.55 943.078 1848.09 978.279 1848.09C1013.48 1848.09 1042 1819.55 1042 1784.33V1202.19H914.558Z" fill="#FFDB68"/>
<path d="M1372.56 1245.87V881H1245.12V1091.43H1144.19V1354.63H1143.37V989.761H1015.93V1200.19H915V1781.86C915 1817.05 943.52 1845.57 978.721 1845.57C1013.92 1845.57 1042.44 1817.05 1042.44 1781.86V1685.58C1042.44 1657.74 1065.05 1635.13 1092.9 1635.13C1120.76 1635.13 1143.37 1657.74 1143.37 1685.58V1936.29C1143.37 1971.49 1171.89 2000 1207.09 2000C1242.29 2000 1270.81 1971.49 1270.81 1936.29V1682.91C1271.32 1679.73 1271.63 1676.44 1271.63 1673.1V1576.77C1271.63 1548.93 1294.24 1526.32 1322.1 1526.32C1349.95 1526.32 1372.56 1548.93 1372.56 1576.77V1827.48C1372.56 1862.67 1401.08 1891.19 1436.28 1891.19C1471.48 1891.19 1500 1862.67 1500 1827.48V1245.87H1372.56Z" fill="#FFDB68"/>
<path d="M457.558 798.192V433H330.116V643.62H229.19V907.05H228.368V541.858H100.926V752.478H0V1334.67C0 1369.89 28.5203 1398.43 63.721 1398.43C98.9217 1398.43 127.442 1369.89 127.442 1334.67V1238.3C127.442 1210.43 150.053 1187.81 177.905 1187.81C205.757 1187.81 228.368 1210.43 228.368 1238.3V1489.24C228.368 1524.46 256.888 1553 292.089 1553C327.29 1553 355.81 1524.46 355.81 1489.24V1235.63C356.324 1232.44 356.632 1229.15 356.632 1225.81V1129.39C356.632 1101.52 379.243 1078.9 407.095 1078.9C434.947 1078.9 457.558 1101.52 457.558 1129.39V1380.33C457.558 1415.55 486.078 1444.09 521.279 1444.09C556.48 1444.09 585 1415.55 585 1380.33V798.192H457.558Z" fill="#2E417B"/>
<path d="M914.558 798.192V433H787.116V643.62H686.19V907.05H685.368V541.858H557.926V752.478H457V1334.67C457 1369.89 485.52 1398.43 520.721 1398.43C555.922 1398.43 584.442 1369.89 584.442 1334.67V1238.3C584.442 1210.43 607.053 1187.81 634.905 1187.81C662.757 1187.81 685.368 1210.43 685.368 1238.3V1489.24C685.368 1524.46 713.888 1553 749.089 1553C784.29 1553 812.81 1524.46 812.81 1489.24V1235.63C813.324 1232.44 813.632 1229.15 813.632 1225.81V1129.39C813.632 1101.52 836.243 1078.9 864.095 1078.9C891.947 1078.9 914.558 1101.52 914.558 1129.39V1380.33C914.558 1415.55 943.078 1444.09 978.279 1444.09C1013.48 1444.09 1042 1415.55 1042 1380.33V798.192H914.558Z" fill="#2E417B"/>
<path d="M1372.56 841.866V477H1245.12V687.432H1144.19V950.627H1143.37V585.761H1015.93V796.193H915V1377.86C915 1413.05 943.52 1441.57 978.721 1441.57C1013.92 1441.57 1042.44 1413.05 1042.44 1377.86V1281.58C1042.44 1253.74 1065.05 1231.13 1092.9 1231.13C1120.76 1231.13 1143.37 1253.74 1143.37 1281.58V1532.29C1143.37 1567.49 1171.89 1596 1207.09 1596C1242.29 1596 1270.81 1567.49 1270.81 1532.29V1278.91C1271.32 1275.73 1271.63 1272.44 1271.63 1269.1V1172.77C1271.63 1144.93 1294.24 1122.32 1322.1 1122.32C1349.95 1122.32 1372.56 1144.93 1372.56 1172.77V1423.48C1372.56 1458.67 1401.08 1487.19 1436.28 1487.19C1471.48 1487.19 1500 1458.67 1500 1423.48V841.866H1372.56Z" fill="#2E417B"/>
<path d="M457.558 259.192V-106H330.116V104.62H229.19V368.05H228.368V2.85817H100.926V213.478H0V795.667C0 830.89 28.5203 859.429 63.721 859.429C98.9217 859.429 127.442 830.89 127.442 795.667V699.304C127.442 671.434 150.053 648.808 177.905 648.808C205.757 648.808 228.368 671.434 228.368 699.304V950.238C228.368 985.461 256.888 1014 292.089 1014C327.29 1014 355.81 985.461 355.81 950.238V696.63C356.324 693.442 356.632 690.151 356.632 686.808V590.394C356.632 562.524 379.243 539.899 407.095 539.899C434.947 539.899 457.558 562.524 457.558 590.394V841.328C457.558 876.552 486.078 905.09 521.279 905.09C556.48 905.09 585 876.552 585 841.328V259.192H457.558Z" fill="#F5945C"/>
<path d="M457.558 259.192V-106H330.116V104.62H229.19V368.05H228.368V2.85817H100.926V213.478H0V795.667C0 830.89 28.5203 859.429 63.721 859.429C98.9217 859.429 127.442 830.89 127.442 795.667V699.304C127.442 671.434 150.053 648.808 177.905 648.808C205.757 648.808 228.368 671.434 228.368 699.304V950.238C228.368 985.461 256.888 1014 292.089 1014C327.29 1014 355.81 985.461 355.81 950.238V696.63C356.324 693.442 356.632 690.151 356.632 686.808V590.394C356.632 562.524 379.243 539.899 407.095 539.899C434.947 539.899 457.558 562.524 457.558 590.394V841.328C457.558 876.552 486.078 905.09 521.279 905.09C556.48 905.09 585 876.552 585 841.328V259.192H457.558Z" fill="#F5945C"/>
<path d="M914.558 259.192V-106H787.116V104.62H686.19V368.05H685.368V2.85817H557.926V213.478H457V795.667C457 830.89 485.52 859.429 520.721 859.429C555.922 859.429 584.442 830.89 584.442 795.667V699.304C584.442 671.434 607.053 648.808 634.905 648.808C662.757 648.808 685.368 671.434 685.368 699.304V950.238C685.368 985.461 713.888 1014 749.089 1014C784.29 1014 812.81 985.461 812.81 950.238V696.63C813.324 693.442 813.632 690.151 813.632 686.808V590.394C813.632 562.524 836.243 539.899 864.095 539.899C891.947 539.899 914.558 562.524 914.558 590.394V841.328C914.558 876.552 943.078 905.09 978.279 905.09C1013.48 905.09 1042 876.552 1042 841.328V259.192H914.558Z" fill="#F5945C"/>
<path d="M914.558 259.192V-106H787.116V104.62H686.19V368.05H685.368V2.85817H557.926V213.478H457V795.667C457 830.89 485.52 859.429 520.721 859.429C555.922 859.429 584.442 830.89 584.442 795.667V699.304C584.442 671.434 607.053 648.808 634.905 648.808C662.757 648.808 685.368 671.434 685.368 699.304V950.238C685.368 985.461 713.888 1014 749.089 1014C784.29 1014 812.81 985.461 812.81 950.238V696.63C813.324 693.442 813.632 690.151 813.632 686.808V590.394C813.632 562.524 836.243 539.899 864.095 539.899C891.947 539.899 914.558 562.524 914.558 590.394V841.328C914.558 876.552 943.078 905.09 978.279 905.09C1013.48 905.09 1042 876.552 1042 841.328V259.192H914.558Z" fill="#F5945C"/>
<path d="M1372.56 302.866V-62H1245.12V148.432H1144.19V411.627H1143.37V46.761H1015.93V257.193H915V838.862C915 874.053 943.52 902.567 978.721 902.567C1013.92 902.567 1042.44 874.053 1042.44 838.862V742.585C1042.44 714.739 1065.05 692.134 1092.9 692.134C1120.76 692.134 1143.37 714.739 1143.37 742.585V993.295C1143.37 1028.49 1171.89 1057 1207.09 1057C1242.29 1057 1270.81 1028.49 1270.81 993.295V739.913C1271.32 736.728 1271.63 733.44 1271.63 730.1V633.772C1271.63 605.927 1294.24 583.322 1322.1 583.322C1349.95 583.322 1372.56 605.927 1372.56 633.772V884.483C1372.56 919.674 1401.08 948.188 1436.28 948.188C1471.48 948.188 1500 919.674 1500 884.483V302.866H1372.56Z" fill="#F5945C"/>
<path d="M1372.56 302.866V-62H1245.12V148.432H1144.19V411.627H1143.37V46.761H1015.93V257.193H915V838.862C915 874.053 943.52 902.567 978.721 902.567C1013.92 902.567 1042.44 874.053 1042.44 838.862V742.585C1042.44 714.739 1065.05 692.134 1092.9 692.134C1120.76 692.134 1143.37 714.739 1143.37 742.585V993.295C1143.37 1028.49 1171.89 1057 1207.09 1057C1242.29 1057 1270.81 1028.49 1270.81 993.295V739.913C1271.32 736.728 1271.63 733.44 1271.63 730.1V633.772C1271.63 605.927 1294.24 583.322 1322.1 583.322C1349.95 583.322 1372.56 605.927 1372.56 633.772V884.483C1372.56 919.674 1401.08 948.188 1436.28 948.188C1471.48 948.188 1500 919.674 1500 884.483V302.866H1372.56Z" fill="#F5945C"/>
<path d="M457.558 -219.808V-585H330.116V-374.38H229.19V-110.95H228.368V-476.142H100.926V-265.522H0V316.667C0 351.89 28.5203 380.429 63.721 380.429C98.9217 380.429 127.442 351.89 127.442 316.667V220.304C127.442 192.434 150.053 169.808 177.905 169.808C205.757 169.808 228.368 192.434 228.368 220.304V471.238C228.368 506.461 256.888 535 292.089 535C327.29 535 355.81 506.461 355.81 471.238V217.63C356.324 214.442 356.632 211.151 356.632 207.808V111.394C356.632 83.5239 379.243 60.8987 407.095 60.8987C434.947 60.8987 457.558 83.5239 457.558 111.394V362.328C457.558 397.552 486.078 426.09 521.279 426.09C556.48 426.09 585 397.552 585 362.328V-219.808H457.558Z" fill="#FFDB68"/>
<path d="M914.558 -219.808V-585H787.116V-374.38H686.19V-110.95H685.368V-476.142H557.926V-265.522H457V316.667C457 351.89 485.52 380.429 520.721 380.429C555.922 380.429 584.442 351.89 584.442 316.667V220.304C584.442 192.434 607.053 169.808 634.905 169.808C662.757 169.808 685.368 192.434 685.368 220.304V471.238C685.368 506.461 713.888 535 749.089 535C784.29 535 812.81 506.461 812.81 471.238V217.63C813.324 214.442 813.632 211.151 813.632 207.808V111.394C813.632 83.5239 836.243 60.8987 864.095 60.8987C891.947 60.8987 914.558 83.5239 914.558 111.394V362.328C914.558 397.552 943.078 426.09 978.279 426.09C1013.48 426.09 1042 397.552 1042 362.328V-219.808H914.558Z" fill="#FFDB68"/>
<path d="M1372.56 -176.134V-541H1245.12V-330.568H1144.19V-67.3734H1143.37V-432.239H1015.93V-221.807H915V359.862C915 395.053 943.52 423.567 978.721 423.567C1013.92 423.567 1042.44 395.053 1042.44 359.862V263.585C1042.44 235.739 1065.05 213.134 1092.9 213.134C1120.76 213.134 1143.37 235.739 1143.37 263.585V514.295C1143.37 549.487 1171.89 578 1207.09 578C1242.29 578 1270.81 549.487 1270.81 514.295V260.913C1271.32 257.728 1271.63 254.44 1271.63 251.1V154.772C1271.63 126.927 1294.24 104.322 1322.1 104.322C1349.95 104.322 1372.56 126.927 1372.56 154.772V405.483C1372.56 440.674 1401.08 469.188 1436.28 469.188C1471.48 469.188 1500 440.674 1500 405.483V-176.134H1372.56Z" fill="#FFDB68"/>
</g>
<defs>
<clipPath id="clip0_5_20156">
<rect width="1500" height="2000" fill="white" transform="translate(1500 2000) rotate(-180)"/>
</clipPath>
</defs>
</svg>
